<?xml version="1.0" encoding="UTF-8"?>
<svg version="1.1" xmlns="http://www.w3.org/2000/svg" width="466" height="473">
<path d="M0 0 C153.78 0 307.56 0 466 0 C466 156.09 466 312.18 466 473 C312.22 473 158.44 473 0 473 C0 316.91 0 160.82 0 0 Z " fill="#000000" transform="translate(0,0)"/>
<path d="M0 0 C153.78 0 307.56 0 466 0 C466 156.09 466 312.18 466 473 C312.22 473 158.44 473 0 473 C0 316.91 0 160.82 0 0 Z M30 31 C30 164.98 30 298.96 30 437 C163.98 437 297.96 437 436 437 C436 303.02 436 169.04 436 31 C302.02 31 168.04 31 30 31 Z " fill="#F8F8F8" transform="translate(0,0)"/>
<path d="M0 0 C153.78 0 307.56 0 466 0 C466 156.09 466 312.18 466 473 C312.22 473 158.44 473 0 473 C0 316.91 0 160.82 0 0 Z M8 9 C8 157.5 8 306 8 459 C156.5 459 305 459 458 459 C458 310.5 458 162 458 9 C309.5 9 161 9 8 9 Z " fill="#000000" transform="translate(0,0)"/>
<path d="M0 0 C49.83 0 99.66 0 151 0 C151 11.88 151 23.76 151 36 C132.85 36 114.7 36 96 36 C96 80.55 96 125.1 96 171 C82.8 171 69.6 171 56 171 C56 126.45 56 81.9 56 36 C37.52 36 19.04 36 0 36 C0 24.12 0 12.24 0 0 Z " fill="#FDFDFD" transform="translate(262,143)"/>
<path d="M0 0 C13.2 0 26.4 0 40 0 C40 44.55 40 89.1 40 135 C69.7 135 99.4 135 130 135 C130 146.88 130 158.76 130 171 C87.1 171 44.2 171 0 171 C0 114.57 0 58.14 0 0 Z " fill="#FEFEFE" transform="translate(103,143)"/>
</svg>
