<?xml version="1.0" standalone="no"?>
<!DOCTYPE svg PUBLIC "-//W3C//DTD SVG 20010904//EN"
 "http://www.w3.org/TR/2001/REC-SVG-20010904/DTD/svg10.dtd">
<svg version="1.0" xmlns="http://www.w3.org/2000/svg"
 width="262.000000pt" height="180.000000pt" viewBox="0 0 262.000000 180.000000"
 preserveAspectRatio="xMidYMid meet">

<g transform="translate(0.000000,180.000000) scale(0.100000,-0.100000)"
fill="#000000" stroke="none">
<path d="M0 1655 l0 -145 40 0 c29 0 40 4 40 15 0 13 22 15 140 15 87 0 140 4
140 10 0 6 9 10 20 10 11 0 20 -4 20 -10 0 -5 9 -10 20 -10 11 0 20 5 20 10 0
6 9 10 20 10 11 0 20 5 20 10 0 6 87 10 240 10 l240 0 14 -32 14 -33 2 35 c1
19 4 29 7 23 6 -15 43 -17 43 -3 0 6 22 10 49 10 38 0 50 4 53 17 3 16 4 16
20 0 14 -14 38 -17 137 -17 74 0 121 -4 121 -10 0 -5 18 -10 40 -10 22 0 40 5
40 10 0 6 7 10 15 10 8 0 15 -4 15 -10 0 -5 -4 -10 -10 -10 -5 0 -10 -4 -10
-10 0 -5 7 -10 15 -10 8 0 15 9 15 20 0 11 5 20 10 20 9 0 14 -15 11 -33 -1
-5 3 -6 8 -3 5 3 14 0 20 -8 9 -11 9 -14 -1 -13 -17 2 -128 -55 -128 -65 0 -4
11 -8 24 -8 22 0 24 -5 28 -51 1 -28 1 -52 -1 -54 -2 -2 -3 -55 -2 -118 l2
-115 -31 -11 c-17 -6 -29 -15 -26 -20 12 -19 -17 -23 -125 -15 -75 4 -106 10
-97 16 9 7 5 8 -12 3 -39 -10 -261 -5 -299 7 -19 6 -36 7 -40 1 -3 -5 -12 -8
-18 -7 -34 4 -37 6 -21 12 10 4 -24 6 -74 5 -60 -2 -97 2 -107 10 -12 9 -13 9
-7 0 4 -8 1 -13 -9 -13 -8 0 -18 7 -21 15 -5 12 -30 15 -140 15 -112 0 -134
-2 -134 -15 0 -10 -10 -15 -30 -15 -16 0 -30 -3 -30 -7 0 -5 33 -8 72 -8 71 0
73 -1 75 -25 1 -22 1 -22 -4 -2 -2 12 -8 22 -13 22 -14 0 -71 -26 -66 -31 2
-2 -21 -4 -52 -5 -31 0 -112 -1 -179 -2 l-123 -2 0 -40 c0 -40 15 -55 23 -22
4 14 5 14 6 -3 1 -17 3 -17 11 -5 7 11 9 6 7 -17 -2 -27 -6 -33 -24 -33 -20 0
-23 -5 -23 -40 0 -40 15 -55 23 -22 4 16 5 16 6 0 1 -11 9 -18 21 -18 11 0 20
-7 20 -15 0 -10 -11 -15 -35 -15 -35 0 -35 0 -35 -45 0 -25 5 -45 10 -45 6 0
10 8 11 18 0 14 2 14 8 -3 l8 -20 5 20 c5 16 6 17 7 3 0 -10 6 -18 11 -18 6 0
10 -7 10 -15 0 -10 -11 -15 -35 -15 -35 0 -35 0 -35 -44 0 -41 2 -44 31 -50
17 -3 44 -6 60 -6 15 0 30 -4 34 -9 5 -9 -19 -8 -97 4 l-28 5 0 -114 c0 -109
1 -114 23 -120 36 -9 57 -7 53 7 -1 6 -1 9 1 4 6 -9 23 1 23 14 0 5 -15 9 -34
9 -19 0 -38 5 -42 11 -4 7 7 10 37 7 26 -2 43 1 42 7 -1 6 19 9 48 7 27 -2 61
0 77 5 15 5 41 6 57 3 17 -4 38 -3 48 2 14 7 17 4 17 -17 0 -20 5 -25 25 -25
20 0 25 5 25 25 0 22 4 25 39 25 29 0 41 -5 44 -18 4 -13 5 -11 6 6 1 21 -3
22 -60 22 -52 0 -60 2 -55 16 3 9 6 25 6 36 0 18 6 19 65 16 36 -1 65 0 65 5
0 4 51 8 113 8 151 2 356 15 268 17 l-63 2 4 45 c3 45 3 45 -29 45 -31 0 -32
-1 -27 -32 3 -18 7 -38 9 -44 5 -16 -52 -24 -172 -24 l-103 0 6 33 c3 17 7 40
9 49 2 14 -4 18 -32 18 -28 0 -34 -3 -29 -16 3 -9 6 -31 6 -49 0 -23 5 -35 18
-38 9 -3 -19 -4 -63 -4 l-80 2 -3 39 c-3 31 0 38 12 33 11 -5 17 3 22 30 11
60 29 70 122 66 51 -2 82 1 82 7 0 6 -39 10 -100 10 -93 0 -100 1 -100 20 0
12 7 20 18 20 14 0 14 2 3 9 -12 8 -12 12 2 25 23 23 67 21 67 -3 0 -11 5 -23
10 -26 6 -3 10 -1 10 4 0 6 5 11 11 11 7 0 17 6 23 14 6 8 22 15 36 16 56 4
71 0 80 -25 5 -14 12 -25 15 -25 4 0 3 5 0 10 -3 6 3 10 14 10 10 0 21 5 23
11 2 7 23 12 46 13 36 1 42 -2 42 -19 0 -15 7 -20 25 -20 17 0 25 6 25 16 0
17 24 32 34 22 3 -4 6 -14 6 -23 0 -13 6 -16 25 -12 14 2 25 10 25 17 0 7 8
15 18 17 30 7 52 -3 52 -24 0 -14 5 -18 16 -14 9 3 20 6 25 6 5 0 9 9 9 20 0
26 20 26 27 0 6 -24 53 -28 53 -5 0 9 9 15 25 15 14 0 28 0 33 0 4 1 8 -8 10
-19 4 -25 38 -17 45 11 7 23 27 15 27 -11 0 -26 30 -22 41 6 8 21 14 23 69 21
53 -1 60 -4 60 -22 0 -18 6 -21 50 -21 41 0 50 3 50 18 0 12 8 17 29 17 27 0
29 3 34 52 4 28 12 55 18 59 6 4 8 12 5 18 -4 6 -12 9 -17 6 -5 -4 -9 85 -9
224 0 147 4 231 10 231 6 0 10 7 10 15 0 18 16 20 26 4 4 -8 9 -7 15 2 6 10 9
8 9 -8 0 -20 5 -23 45 -23 25 0 45 5 45 10 0 6 3 9 8 9 38 -6 52 2 52 31 0 23
6 33 24 40 35 13 41 29 14 39 -13 6 -18 10 -12 10 6 1 11 8 11 16 0 8 -6 14
-13 13 -7 -2 -13 0 -13 5 -2 22 0 27 14 27 8 0 15 -4 15 -10 0 -5 9 -10 20
-10 11 0 20 -5 20 -12 0 -6 8 -1 19 10 15 18 29 22 84 22 43 0 67 -4 70 -12 4
-10 8 -9 17 2 9 11 13 12 17 3 2 -7 18 -13 34 -13 16 0 29 -4 29 -10 0 -15 57
-12 63 3 4 9 8 8 17 -3 9 -11 13 -12 17 -2 6 15 143 17 143 2 0 -11 102 -13
174 -4 l46 7 0 123 0 124 -1310 0 -1310 0 0 -145z m1698 -95 c9 -1 28 -8 42
-16 17 -11 19 -13 5 -9 -26 9 -46 13 -65 14 -12 1 -14 13 -10 68 l5 68 3 -62
c2 -51 6 -63 20 -63z m-698 71 c0 -5 -7 -11 -14 -14 -10 -4 -13 -1 -9 9 6 15
23 19 23 5z m650 -57 c0 -14 -4 -23 -10 -19 -5 3 -10 15 -10 26 0 10 5 19 10
19 6 0 10 -12 10 -26z m-30 -26 c0 -10 -11 -10 -28 0 -7 5 -10 16 -6 27 7 17
8 17 21 -1 7 -10 13 -21 13 -26z m190 -8 c9 -17 8 -20 -10 -20 -12 0 -19 4
-15 9 3 6 -3 14 -12 20 -16 9 -16 10 4 11 12 0 27 -9 33 -20z m-1405 -489 c-3
-6 -11 -11 -17 -11 -6 0 -6 6 2 15 14 17 26 13 15 -4z m-300 -52 c5 -13 2 -25
-6 -31 -11 -8 -11 -9 2 -5 9 3 22 1 30 -4 10 -6 4 -9 -18 -9 -31 0 -33 2 -33
35 0 39 15 47 25 14z m177 -12 c-7 -8 -9 -17 -5 -20 3 -4 -9 -6 -28 -6 -24 1
-27 3 -11 6 12 2 20 9 17 14 -4 5 1 9 9 9 9 0 16 5 16 12 0 6 3 8 6 5 4 -4 2
-13 -4 -20z m80 -2 c0 -5 -5 -10 -11 -11 -8 -2 -7 -1 0 3 8 4 7 8 -2 15 -11 8
-11 9 -1 6 8 -2 14 -8 14 -13z m-177 -5 c-3 -5 -12 -10 -18 -10 -7 0 -6 4 3
10 19 12 23 12 15 0z m-78 -110 c3 -16 9 -30 14 -30 5 0 9 -7 9 -15 0 -9 -9
-15 -25 -15 -23 0 -25 4 -25 45 0 51 17 61 27 15z m-2 -110 c4 -16 11 -32 16
-35 19 -12 9 -35 -16 -35 -23 0 -25 3 -25 50 0 55 15 67 25 20z m5 -129 c14
-28 13 -31 -12 -30 -21 0 -21 1 -4 8 17 7 17 8 2 24 -10 9 -13 17 -7 17 6 0
15 -9 21 -19z m-62 -11 c7 -11 9 -20 4 -20 -4 0 -13 9 -20 20 -7 11 -9 20 -4
20 4 0 13 -9 20 -20z m312 -146 c0 -8 -4 -14 -10 -14 -5 0 -10 9 -10 21 0 11
5 17 10 14 6 -3 10 -13 10 -21z"/>
<path d="M1515 1510 c-3 -6 1 -7 9 -4 18 7 21 14 7 14 -6 0 -13 -4 -16 -10z"/>
<path d="M1710 1275 c-7 -9 -10 -18 -7 -21 3 -3 10 4 17 15 13 25 8 27 -10 6z"/>
<path d="M2116 1165 c-9 -9 -16 -23 -16 -31 0 -8 -4 -14 -8 -14 -12 0 -33 -50
-27 -61 4 -5 1 -9 -4 -9 -6 0 -11 8 -11 18 0 11 -15 24 -41 35 -42 18 -59 16
-59 -9 0 -8 -6 -14 -12 -14 -10 0 -10 -2 0 -9 18 -11 -17 -21 -75 -21 -42 0
-43 -1 -43 -35 0 -26 3 -33 15 -29 8 4 15 1 15 -6 0 -6 -9 -14 -19 -17 -11 -3
-17 -11 -15 -18 3 -7 1 -16 -5 -20 -6 -3 -11 -32 -12 -63 0 -41 -3 -51 -9 -37
-7 17 -9 14 -10 -15 l-2 -35 -8 35 c-9 36 -41 70 -67 70 -23 0 -63 -47 -63
-75 0 -18 -5 -25 -19 -25 -11 0 -23 -5 -27 -12 -4 -7 -3 -8 4 -4 8 4 12 0 12
-12 0 -19 -29 -25 -147 -26 -29 0 -53 -4 -53 -8 0 -5 39 -8 88 -8 l87 0 -5
-64 c-3 -36 -9 -68 -14 -73 -4 -4 -6 12 -5 37 4 46 4 46 -42 41 -7 -1 -10 -17
-7 -41 3 -35 1 -40 -18 -40 -19 0 -21 4 -14 40 7 39 7 40 -22 40 -29 0 -30 -2
-26 -39 l3 -39 -50 -6 c-27 -3 -101 -6 -164 -6 l-114 0 5 45 c5 44 5 45 -23
45 -28 0 -29 -2 -29 -45 0 -35 -4 -45 -16 -45 -14 0 -16 8 -12 45 5 44 5 45
-23 45 -28 0 -29 -2 -29 -49 0 -30 -5 -51 -12 -54 -7 -3 -3 -6 9 -6 12 -1 24
-7 26 -13 4 -10 8 -10 15 1 7 10 21 12 48 8 27 -4 34 -3 24 3 -10 6 41 10 150
11 91 1 172 2 180 3 8 1 21 -3 29 -9 10 -7 15 -6 18 3 5 14 63 17 63 2 0 -5 5
-10 11 -10 5 0 7 4 4 10 -3 5 1 10 11 10 12 0 15 -6 12 -24 -4 -21 -1 -25 21
-28 18 -2 27 -10 29 -25 2 -13 -1 -23 -7 -23 -6 0 -8 7 -5 15 9 23 -24 19 -38
-5 -10 -16 -23 -20 -68 -20 -45 1 -52 3 -39 13 14 11 14 14 -3 31 -18 19 -18
19 -18 -11 l0 -30 -117 -7 c-65 -4 -138 -9 -163 -10 -163 -13 -300 -20 -332
-19 -34 1 -36 -1 -29 -21 5 -11 6 -27 4 -33 -3 -9 6 -13 24 -14 23 0 25 -2 8
-8 -16 -7 -14 -9 14 -14 19 -4 70 -7 115 -8 44 0 104 -4 131 -9 l50 -7 -40 -3
c-22 -1 -66 -1 -97 0 -47 1 -57 -1 -61 -17 -3 -11 -3 -9 -2 4 1 13 -2 23 -6
23 -5 0 -9 -11 -9 -25 0 -27 -18 -33 -40 -13 -12 11 -12 10 -1 -4 8 -11 9 -18
3 -18 -18 0 -24 20 -11 36 9 11 14 12 19 3 6 -8 9 -8 14 0 4 6 4 11 -1 12 -4
0 -15 2 -23 3 -68 13 -119 15 -125 6 -4 -6 -4 -14 0 -18 3 -3 10 0 14 7 6 10
14 11 27 3 15 -8 10 -11 -29 -17 -26 -4 -50 -12 -53 -17 -9 -13 -34 11 -34 33
0 11 -5 19 -11 19 -5 0 -7 4 -4 10 3 5 25 11 48 11 23 1 35 3 26 6 -10 2 -19
13 -22 24 -4 14 -14 19 -37 19 -18 0 -29 4 -25 10 3 5 27 10 53 10 39 1 44 2
28 12 -11 6 -39 8 -67 5 -28 -4 -49 -2 -49 3 0 14 -33 -1 -50 -23 -9 -11 -33
-20 -60 -23 -43 -4 -165 -18 -260 -29 -122 -14 -145 -15 -122 -5 12 5 22 16
22 25 0 26 -38 17 -62 -15 -17 -24 -29 -30 -60 -30 l-38 0 0 -119 0 -118 108
-11 c118 -13 323 -27 335 -24 4 1 7 -11 7 -28 0 -31 20 -43 20 -12 1 16 1 16
14 0 17 -24 40 -24 31 -1 -11 31 -10 38 5 34 8 -2 95 -10 193 -17 102 -8 185
-18 193 -25 9 -8 14 -8 14 -1 0 7 9 8 23 4 12 -3 394 -8 850 -9 l827 -4 0 134
0 134 -122 2 c-68 1 -181 6 -253 13 -71 6 -136 11 -142 11 -7 0 -13 5 -13 10
0 6 -3 7 -7 4 -3 -4 -12 2 -20 13 -17 24 -27 25 -48 4 -18 -19 -137 -35 -158
-22 -7 4 7 8 33 9 51 1 82 10 81 24 -1 6 10 14 24 18 19 7 35 3 63 -13 20 -12
31 -16 25 -9 -20 20 -16 29 12 29 48 0 24 18 -38 29 -35 6 -71 11 -80 11 -9 0
-17 5 -17 11 0 11 28 8 130 -15 65 -14 184 -31 208 -29 6 0 12 -4 12 -9 0 -7
-24 -9 -65 -6 -50 4 -65 3 -65 -7 0 -8 8 -16 18 -19 9 -2 -10 -3 -43 0 -43 4
-55 2 -44 -5 31 -20 166 -34 334 -35 l170 -1 3 110 2 110 -107 -3 c-60 -1
-118 -4 -130 -6 -13 -2 -23 1 -23 6 0 5 -9 4 -19 -2 -33 -17 -140 -13 -159 7
-16 16 -17 15 -21 -2 -2 -14 -5 -15 -12 -4 -7 12 -12 12 -30 1 -20 -13 -21
-12 -15 3 5 14 4 16 -7 7 -8 -7 -17 -9 -20 -5 -4 3 -7 1 -7 -5 0 -7 -8 -12
-17 -12 -16 0 -18 9 -15 80 2 44 8 80 13 80 6 0 3 8 -7 17 -13 13 -19 14 -22
5 -5 -16 -32 -16 -32 1 0 8 -4 7 -10 -3 -7 -9 -8 -47 -4 -97 5 -63 3 -83 -6
-83 -7 0 -10 -8 -7 -19 7 -29 -7 -44 -34 -36 -23 8 -23 8 -4 16 17 6 17 8 3 8
-10 1 -18 7 -18 15 0 9 -8 12 -25 8 -20 -3 -25 0 -25 17 0 13 -4 19 -11 16 -6
-4 -8 -13 -5 -21 4 -9 -2 -14 -15 -14 -18 0 -20 6 -17 82 2 54 7 83 16 86 7 2
12 -5 12 -17 0 -11 5 -23 10 -26 6 -3 10 3 10 14 0 11 8 25 18 30 13 8 8 10
-25 11 -36 0 -43 3 -43 19 0 26 36 33 163 31 258 -5 647 1 647 10 0 5 -161 8
-402 7 l-403 -2 3 28 c2 19 -2 27 -13 27 -8 0 -15 5 -15 10 0 12 77 12 105 0
16 -7 12 -9 -19 -9 -50 -1 -41 -11 14 -16 32 -3 40 -1 36 10 -3 8 2 14 12 14
9 0 42 2 72 3 41 3 58 -1 68 -13 14 -16 52 -15 52 2 0 5 7 9 16 9 9 0 14 -6
11 -13 -4 -10 3 -12 24 -9 16 2 29 8 29 13 0 14 45 11 76 -6 20 -10 30 -11 35
-3 9 14 62 14 67 -1 5 -14 52 -15 52 -1 0 6 7 10 16 10 9 0 14 -6 11 -13 -4
-10 3 -12 24 -9 16 2 29 8 29 13 0 5 16 9 35 9 19 0 35 -4 35 -10 0 -5 7 -10
15 -10 13 0 15 23 15 145 l0 144 -65 -6 c-54 -5 -65 -3 -65 9 0 15 -28 46 -42
47 -5 1 -9 1 -10 2 -32 8 -68 4 -68 -7 0 -15 -57 -28 -100 -22 -17 3 -30 1
-30 -4 0 -5 -6 -6 -12 -1 -7 4 -24 9 -38 11 -34 5 -36 9 -17 30 21 23 22 39 1
21 -13 -11 -15 -9 -12 16 4 35 -21 45 -46 20z m-449 -463 c7 -5 -4 -8 -27 -9
-22 -1 -40 2 -40 8 0 11 50 12 67 1z m57 -3 c-2 -4 2 -10 8 -12 7 -3 3 -6 -8
-6 -12 -1 -24 5 -27 12 -3 7 3 13 13 13 10 0 17 -3 14 -7z m289 -81 c7 -52 3
-123 -8 -128 -6 -3 -11 27 -13 78 -3 80 11 114 21 50z m-916 -54 c-3 -3 -12
-4 -19 -1 -8 3 -5 6 6 6 11 1 17 -2 13 -5z m632 -88 c-11 -10 -89 -15 -89 -6
0 5 21 10 47 10 25 0 44 -2 42 -4z m728 -68 c-3 -8 -6 -5 -6 6 -1 11 2 17 5
13 3 -3 4 -12 1 -19z m-264 5 c-7 -2 -19 -2 -25 0 -7 3 -2 5 12 5 14 0 19 -2
13 -5z m-1553 -13 c-8 -5 -22 -10 -30 -10 -13 0 -13 1 0 10 8 5 22 10 30 10
13 0 13 -1 0 -10z m1915 0 c-3 -5 -11 -10 -16 -10 -6 0 -7 5 -4 10 3 6 11 10
16 10 6 0 7 -4 4 -10z m-798 -6 c-3 -3 -12 -4 -19 -1 -8 3 -5 6 6 6 11 1 17
-2 13 -5z m131 -1 c-15 -2 -42 -2 -60 0 -18 2 -6 4 27 4 33 0 48 -2 33 -4z
m625 0 c-7 -2 -21 -2 -30 0 -10 3 -4 5 12 5 17 0 24 -2 18 -5z m-506 -9 c-3
-3 -12 -4 -19 -1 -8 3 -5 6 6 6 11 1 17 -2 13 -5z m-447 -14 c-8 -5 -24 -9
-35 -9 l-20 0 20 9 c11 5 27 9 35 9 13 1 13 0 0 -9z m230 6 c0 -3 -4 -8 -10
-11 -5 -3 -10 -1 -10 4 0 6 5 11 10 11 6 0 10 -2 10 -4z m-1075 -16 c3 -5 1
-10 -4 -10 -6 0 -11 5 -11 10 0 6 2 10 4 10 3 0 8 -4 11 -10z m582 4 c-3 -3
-12 -4 -19 -1 -8 3 -5 6 6 6 11 1 17 -2 13 -5z m319 -1 c-10 -10 -46 -11 -40
-1 3 4 15 8 26 8 12 0 18 -3 14 -7z m859 -3 c3 -5 24 -10 45 -10 37 0 66 -20
42 -28 -7 -2 -10 -8 -6 -13 3 -5 -9 -9 -25 -9 -17 0 -31 5 -31 11 0 5 -4 7
-10 4 -5 -3 -15 -3 -22 1 -8 5 -6 10 8 15 17 6 16 8 -8 18 -16 6 -28 13 -28
16 0 9 29 5 35 -5z m-1288 -6 c-3 -3 -12 -4 -19 -1 -8 3 -5 6 6 6 11 1 17 -2
13 -5z m676 -1 c-7 -2 -21 -2 -30 0 -10 3 -4 5 12 5 17 0 24 -2 18 -5z m545
-18 c-3 -14 -1 -25 3 -25 5 0 9 5 9 11 0 5 5 7 10 4 24 -15 6 -23 -50 -24 -49
0 -58 2 -53 14 4 13 8 13 22 3 14 -12 14 -11 3 4 -15 19 -70 15 -84 -6 -5 -7
-8 -4 -8 7 0 12 8 17 30 17 17 0 30 5 30 10 0 6 21 10 46 10 44 0 46 -1 42
-25z m-1338 5 c0 -5 -4 -10 -10 -10 -5 0 -10 5 -10 10 0 6 5 10 10 10 6 0 10
-4 10 -10z m32 1 c8 11 9 11 6 1 -4 -16 -22 -18 -24 -2 -2 7 -1 6 3 -1 4 -8 8
-7 15 2z m-145 -7 c-3 -3 -12 -4 -19 -1 -8 3 -5 6 6 6 11 1 17 -2 13 -5z m71
-1 c-10 -2 -26 -2 -35 0 -10 3 -2 5 17 5 19 0 27 -2 18 -5z m1574 -11 c-7 -2
-9 -9 -6 -14 4 -7 2 -8 -4 -4 -19 12 -15 36 5 29 11 -4 13 -8 5 -11z m-367 -2
c3 -5 1 -10 -4 -10 -6 0 -11 5 -11 10 0 6 2 10 4 10 3 0 8 -4 11 -10z m-951
-21 c-7 -12 -111 -12 -119 0 -7 12 27 17 82 12 24 -1 40 -7 37 -12z m1023 15
c-3 -3 -12 -4 -19 -1 -8 3 -5 6 6 6 11 1 17 -2 13 -5z m-498 -16 c-47 -9 -502
-10 -496 -1 3 5 123 8 267 8 143 0 247 -3 229 -7z m-1154 -8 c17 -7 15 -9 -10
-8 -16 0 -43 4 -60 8 -29 7 -28 8 10 8 22 0 49 -3 60 -8z m962 -42 c-3 -8 -6
-5 -6 6 -1 11 2 17 5 13 3 -3 4 -12 1 -19z m-1050 0 c0 -7 4 -22 8 -33 l8 -20
-16 20 c-18 22 -22 45 -9 45 5 0 9 -6 9 -12z m283 2 c0 -5 -7 -7 -15 -4 -8 4
-15 8 -15 10 0 2 7 4 15 4 8 0 15 -4 15 -10z m-515 -10 c3 -5 14 -10 23 -9 14
0 13 2 -3 9 -18 8 -17 9 7 9 15 1 30 -4 33 -9 3 -6 16 -8 28 -5 12 3 36 1 52
-4 l30 -9 -35 -3 c-44 -3 -46 -3 -155 7 -82 7 -86 9 -45 15 25 3 48 7 52 7 4
1 10 -2 13 -8z m615 2 c0 -2 -7 -11 -16 -19 -13 -14 -17 -14 -25 -2 -14 23
-11 29 16 27 14 -1 25 -4 25 -6z m56 -3 c3 -6 17 -9 29 -7 16 3 22 1 18 -8 -4
-12 -27 -9 -48 6 -5 5 -19 10 -30 13 -19 4 -18 5 2 6 12 0 25 -4 29 -10z
m-229 -5 c-3 -3 -12 -4 -19 -1 -8 3 -5 6 6 6 11 1 17 -2 13 -5z m533 -14 c-19
-13 -30 -13 -30 0 0 6 10 10 23 10 18 0 19 -2 7 -10z m-525 -20 c3 -6 -1 -7
-9 -4 -18 7 -21 14 -7 14 6 0 13 -4 16 -10z m682 -1 c24 1 43 -2 42 -6 -3 -20
2 -34 11 -28 6 3 10 1 10 -5 0 -8 -7 -9 -17 -5 -10 4 -35 9 -56 12 -24 4 -42
13 -48 26 -9 15 -8 18 2 11 7 -4 32 -7 56 -5z m594 -6 c13 -17 13 -17 -6 -3
-11 8 -22 16 -24 17 -2 2 0 3 6 3 6 0 17 -8 24 -17z m539 13 c0 -3 -4 -8 -10
-11 -5 -3 -10 -1 -10 4 0 6 5 11 10 11 6 0 10 -2 10 -4z m-1210 -27 c0 -5 -4
-9 -10 -9 -5 0 -10 7 -10 16 0 8 5 12 10 9 6 -3 10 -10 10 -16z m215 11 c-3
-5 -12 -10 -18 -10 -7 0 -6 4 3 10 19 12 23 12 15 0z m-245 -20 c0 -5 -12 -10
-26 -10 -14 0 -23 4 -19 10 3 6 15 10 26 10 10 0 19 -4 19 -10z m977 4 c-3 -3
-12 -4 -19 -1 -8 3 -5 6 6 6 11 1 17 -2 13 -5z m-171 -16 c3 -4 -1 -5 -10 -4
-8 1 -18 5 -22 8 -3 4 1 5 10 4 8 -1 18 -5 22 -8z m-1656 -24 c16 -41 13 -57
-10 -51 -12 3 -24 -1 -30 -11 -7 -13 -9 -6 -10 29 0 25 3 49 7 52 14 15 34 6
43 -19z m1300 12 c-7 -7 -14 -6 -21 1 -9 9 -7 12 9 10 14 -1 18 -5 12 -11z
m307 -6 c3 -9 1 -11 -4 -5 -14 18 -36 17 -29 -1 5 -12 2 -15 -10 -10 -8 3 -18
6 -22 6 -3 0 3 7 14 15 23 18 46 16 51 -5z m-1190 -22 c-3 -7 -5 -2 -5 12 0
14 2 19 5 13 2 -7 2 -19 0 -25z m1231 8 c-7 -8 -16 -12 -21 -9 -11 7 2 23 19
23 12 0 12 -2 2 -14z m232 -16 c0 -5 -4 -10 -10 -10 -5 0 -10 5 -10 10 0 6 5
10 10 10 6 0 10 -4 10 -10z"/>
<path d="M518 1163 c23 -2 61 -2 85 0 23 2 4 4 -43 4 -47 0 -66 -2 -42 -4z"/>
<path d="M194 1128 c-4 -13 -12 -26 -18 -30 -6 -4 6 -8 26 -8 37 0 37 0 27 30
-13 36 -25 38 -35 8z"/>
<path d="M128 1093 c6 -2 18 -2 25 0 6 3 1 5 -13 5 -14 0 -19 -2 -12 -5z"/>
<path d="M7 1083 c7 -2 19 -2 26 0 6 3 1 5 -13 5 -14 0 -19 -2 -13 -5z"/>
<path d="M1686 1045 c-8 -8 -19 -15 -25 -15 -6 0 -11 -13 -11 -30 0 -28 3 -30
38 -31 l37 -2 -40 -8 -40 -7 47 1 c40 2 48 -1 51 -18 4 -17 4 -17 6 3 1 19 5
22 24 17 20 -6 21 -5 5 8 -10 8 -18 26 -18 41 0 16 -5 26 -15 26 -8 0 -15 4
-15 9 0 17 -29 20 -44 6z"/>
<path d="M1956 771 c9 -9 84 -8 84 1 0 4 -20 7 -45 6 -25 0 -42 -4 -39 -7z"/>
<path d="M967 718 c-7 -4 88 -8 211 -8 139 0 222 4 222 10 0 11 -415 9 -433
-2z"/>
<path d="M590 713 c0 -5 71 -7 157 -5 226 4 238 9 26 11 -101 0 -183 -2 -183
-6z"/>
<path d="M1263 693 c-22 -8 -14 -23 12 -23 14 0 25 4 25 9 0 11 -21 19 -37 14z"/>
<path d="M1333 693 c-22 -8 -14 -23 12 -23 14 0 25 4 25 9 0 11 -21 19 -37 14z"/>
<path d="M1440 685 c-11 -13 -9 -15 15 -15 16 0 25 5 23 12 -7 19 -24 20 -38
3z"/>
<path d="M1523 693 c-24 -9 -13 -23 18 -23 27 0 30 2 19 15 -13 16 -17 17 -37
8z"/>
<path d="M2080 685 c-11 -13 -9 -15 15 -15 16 0 25 5 23 12 -7 19 -24 20 -38
3z"/>
<path d="M2167 694 c-13 -13 -7 -24 14 -24 11 0 19 5 17 12 -5 14 -22 21 -31
12z"/>
<path d="M2277 694 c-14 -14 -6 -24 19 -24 16 0 24 5 22 13 -5 14 -31 21 -41
11z"/>
<path d="M2397 693 c-14 -13 -6 -23 18 -23 28 0 34 15 9 24 -19 7 -19 7 -27
-1z"/>
<path d="M2483 693 c-22 -8 -14 -23 12 -23 14 0 25 4 25 9 0 11 -21 19 -37 14z"/>
<path d="M2606 691 c-4 -7 -5 -15 -2 -18 9 -9 19 4 14 18 -4 11 -6 11 -12 0z"/>
<path d="M477 684 c-14 -14 -6 -24 19 -24 16 0 24 5 22 13 -5 14 -31 21 -41
11z"/>
<path d="M640 675 c-11 -13 -8 -15 20 -15 21 0 30 4 28 13 -7 18 -33 20 -48 2z"/>
<path d="M780 676 c0 -11 9 -16 26 -16 31 0 28 23 -4 28 -15 2 -22 -2 -22 -12z"/>
<path d="M867 676 c-5 -12 1 -16 24 -16 20 0 29 4 27 13 -7 18 -45 20 -51 3z"/>
<path d="M985 680 c-4 -6 7 -10 25 -10 18 0 29 4 25 10 -3 6 -15 10 -25 10
-10 0 -22 -4 -25 -10z"/>
<path d="M1065 680 c-4 -6 7 -10 25 -10 18 0 29 4 25 10 -3 6 -15 10 -25 10
-10 0 -22 -4 -25 -10z"/>
<path d="M1180 680 c0 -5 11 -10 25 -10 14 0 25 5 25 10 0 6 -11 10 -25 10
-14 0 -25 -4 -25 -10z"/>
<path d="M1900 646 c0 -8 4 -26 10 -40 12 -33 40 -34 40 -2 0 13 3 31 6 40 5
13 -1 16 -25 16 -20 0 -31 -5 -31 -14z"/>
<path d="M2070 643 c0 -26 11 -63 19 -63 16 1 28 18 34 48 6 30 5 32 -23 32
-22 0 -30 -5 -30 -17z"/>
<path d="M2154 644 c3 -9 6 -27 6 -41 0 -17 4 -23 14 -20 7 3 17 2 22 -3 5 -5
9 10 9 36 1 42 -1 44 -28 44 -22 0 -28 -4 -23 -16z"/>
<path d="M2272 623 c2 -32 6 -37 23 -35 25 5 22 1 27 37 3 26 0 30 -25 33 -27
3 -28 2 -25 -35z"/>
<path d="M2390 620 c0 -22 4 -40 10 -40 5 0 7 -7 4 -15 -8 -19 6 -19 31 2 l20
16 -20 -7 c-16 -6 -18 -5 -7 5 6 7 12 28 12 46 0 29 -3 33 -25 33 -22 0 -25
-4 -25 -40z"/>
<path d="M2470 620 c0 -36 3 -40 24 -40 13 0 26 -4 28 -8 2 -5 14 -5 28 -1
l25 7 -27 1 c-26 1 -28 4 -28 41 0 36 -2 40 -25 40 -22 0 -25 -4 -25 -40z"/>
<path d="M2590 625 c0 -24 5 -35 15 -35 10 0 15 11 15 35 0 24 -5 35 -15 35
-10 0 -15 -11 -15 -35z"/>
<path d="M860 603 c0 -39 2 -43 25 -43 21 0 25 5 25 29 0 16 3 37 6 45 5 13 0
16 -25 14 -30 -2 -31 -4 -31 -45z"/>
<path d="M1180 610 c0 -36 3 -40 24 -40 21 0 24 6 28 40 3 38 2 40 -24 40 -26
0 -28 -3 -28 -40z"/>
<path d="M1250 610 c0 -36 3 -40 24 -40 21 0 24 6 28 40 3 38 2 40 -24 40 -26
0 -28 -3 -28 -40z"/>
<path d="M1320 610 c0 -36 3 -40 24 -40 21 0 24 6 28 40 3 38 2 40 -24 40 -26
0 -28 -3 -28 -40z"/>
<path d="M634 624 c3 -9 6 -29 6 -46 0 -25 3 -29 23 -26 18 2 23 11 28 46 l5
42 -34 0 c-27 0 -33 -3 -28 -16z"/>
<path d="M2230 569 c0 -5 5 -7 10 -4 6 3 10 8 10 11 0 2 -4 4 -10 4 -5 0 -10
-5 -10 -11z"/>
<path d="M2580 575 c0 -2 9 -9 20 -15 16 -9 20 -8 20 5 0 8 -9 15 -20 15 -11
0 -20 -2 -20 -5z"/>
<path d="M1898 563 c7 -3 16 -2 19 1 4 3 -2 6 -13 5 -11 0 -14 -3 -6 -6z"/>
<path d="M1948 563 c7 -3 16 -2 19 1 4 3 -2 6 -13 5 -11 0 -14 -3 -6 -6z"/>
<path d="M2075 561 c8 -8 115 -6 115 2 0 4 -27 6 -60 5 -32 -1 -57 -4 -55 -7z"/>
<path d="M2287 559 c7 -7 15 -10 18 -7 3 3 -2 9 -12 12 -14 6 -15 5 -6 -5z"/>
<path d="M2488 563 c7 -3 16 -2 19 1 4 3 -2 6 -13 5 -11 0 -14 -3 -6 -6z"/>
<path d="M1198 533 c7 -3 16 -2 19 1 4 3 -2 6 -13 5 -11 0 -14 -3 -6 -6z"/>
<path d="M888 523 c7 -3 16 -2 19 1 4 3 -2 6 -13 5 -11 0 -14 -3 -6 -6z"/>
<path d="M658 513 c7 -3 16 -2 19 1 4 3 -2 6 -13 5 -11 0 -14 -3 -6 -6z"/>
<path d="M1396 475 c4 -8 8 -15 10 -15 2 0 4 7 4 15 0 8 -4 15 -10 15 -5 0 -7
-7 -4 -15z"/>
<path d="M1535 480 c-19 -8 -19 -9 3 -9 12 -1 22 4 22 9 0 6 -1 10 -2 9 -2 0
-12 -4 -23 -9z"/>
<path d="M573 453 c9 -2 25 -2 35 0 9 3 1 5 -18 5 -19 0 -27 -2 -17 -5z"/>
<path d="M638 453 c7 -3 16 -2 19 1 4 3 -2 6 -13 5 -11 0 -14 -3 -6 -6z"/>
<path d="M830 449 c0 -5 9 -9 20 -9 11 0 20 2 20 4 0 2 -9 6 -20 9 -11 3 -20
1 -20 -4z"/>
<path d="M899 450 c-8 -6 -8 -9 1 -15 7 -4 16 -1 21 6 6 10 9 11 9 2 0 -7 10
-13 23 -13 16 0 18 3 8 9 -11 7 -11 9 0 13 8 3 0 5 -18 5 -18 0 -37 -4 -44 -7z"/>
<path d="M521 427 c-18 -18 -12 -27 17 -27 20 0 23 3 13 9 -11 7 -9 10 10 13
24 4 24 4 -3 9 -15 3 -32 1 -37 -4z"/>
<path d="M265 400 c-28 -7 -29 -8 -5 -10 23 -1 23 -2 5 -10 -18 -8 -17 -9 8
-9 21 -1 27 4 27 19 0 11 -1 19 -2 19 -2 -1 -16 -5 -33 -9z"/>
<path d="M172 378 c7 -20 58 -23 58 -4 0 11 -10 16 -31 16 -20 0 -29 -4 -27
-12z"/>
<path d="M2140 348 c-12 -8 -12 -9 2 -5 9 3 19 1 22 -6 3 -9 5 -9 5 0 1 18
-13 23 -29 11z"/>
<path d="M714 315 c-3 -8 -4 -20 -1 -27 3 -7 6 -3 6 9 1 16 6 21 16 17 8 -4
15 -4 15 -1 0 13 -31 15 -36 2z"/>
</g>
</svg>
